Coordinates
version=1
nRows=17
nColumns=24
inDegrees=yes

Units are S.I. units (second, meters, Newtons, ...)
Angles are in degrees.

endheader
time	pelvis_tilt	pelvis_list	pelvis_rotation	pelvis_tx	pelvis_ty	pelvis_tz	hip_flexion_r	hip_adduction_r	hip_rotation_r	knee_angle_r	ankle_angle_r	subtalar_angle_r	mtp_angle_r	hip_flexion_l	hip_adduction_l	hip_rotation_l	knee_angle_l	ankle_angle_l	subtalar_angle_l	mtp_angle_l	lumbar_extension	lumbar_bending	lumbar_rotation
      5.25000000	      1.71857954	      5.92752281	     -0.32549007	     -1.37823239	      0.92654779	      0.17567654	     23.79659807	     -2.62815421	     -9.37127969	    -10.90490611	      1.99428181	      6.25340238	      0.00000000	    -18.91578818	     10.83636783	      7.55465486	     -5.98729274	     19.13133726	     -5.61722102	      0.00000000	    -28.42464938	     -5.89420693	    -11.62599850
      5.26000000	      1.96618847	      5.40757335	     -0.67605267	     -1.36466912	      0.92593400	      0.17642601	     23.69803732	     -1.77011555	     -7.71672245	    -12.57130517	      1.20476746	      4.22100252	      0.00000000	    -19.05067308	     10.45377821	      6.76904117	     -7.84129608	     19.16774967	     -5.34152805	      0.00000000	    -28.58414707	     -5.36983244	    -11.15227497
      5.27000000	      2.11558713	      4.82639305	     -0.92170652	     -1.35095945	      0.92560061	      0.17723184	     23.68024868	     -0.85041111	     -5.95336071	    -14.25742761	      0.41381428	      1.87714212	      0.00000000	    -18.93216555	      9.93842853	      5.78294252	     -9.98644764	     19.11276564	     -4.65499588	      0.00000000	    -28.63251488	     -4.76932301	    -10.76951763
      5.28000000	      2.27995246	      4.20112020	     -1.15901972	     -1.33709940	      0.92565327	      0.17809050	     23.62028903	      0.12456204	     -4.17139666	    -15.94621218	     -0.16448184	     -0.45518292	      0.00000000	    -18.68746809	      9.33094929	      4.63383858	    -12.39504867	     18.78787753	     -3.74155781	      0.00000000	    -28.69306251	     -4.12879487	    -10.34507007
      5.29000000	      2.49420970	      3.61369852	     -1.36035254	     -1.32318616	      0.92608750	      0.17900849	     23.47393183	      1.04644155	     -2.59670053	    -17.63521907	     -0.31105812	     -2.55442822	      0.00000000	    -18.31776808	      8.67998764	      3.30817007	    -15.11689638	     18.17262176	     -2.50032356	      0.00000000	    -28.83064288	     -3.54136187	     -9.98417314
      5.30000000	      2.74938918	      3.00713971	     -1.53737609	     -1.30905648	      0.92690842	      0.17985640	     23.17151913	      1.93624058	     -1.40498303	    -19.22112009	      0.09941329	     -4.05809629	      0.00000000	    -17.80037118	      7.91762189	      1.75042122	    -18.17317416	     17.13697778	     -0.97220586	      0.00000000	    -28.98244907	     -2.91298724	     -9.61085174
      5.31000000	      3.01338029	      2.40036274	     -1.64036024	     -1.29479714	      0.92808397	      0.18067890	     22.68726679	      2.77249499	     -0.57004243	    -20.57829524	      0.85418177	     -5.18018858	      0.00000000	    -17.09713496	      7.03150064	      0.17964000	    -21.53319880	     15.54003286	      0.64368858	      0.00000000	    -29.12744324	     -2.27803218	     -9.28052540
      5.32000000	      3.25868217	      1.88611299	     -1.58824583	     -1.28072465	      0.92953318	      0.18135106	     22.06953061	      3.40916576	     -0.22924144	    -21.69749588	      1.98143470	     -5.79686327	      0.00000000	    -16.10981299	      6.08601708	     -1.23223206	    -25.25763461	     13.37395955	      2.35302965	      0.00000000	    -29.28558703	     -1.70752201	     -9.11791033
      5.33000000	      3.45009199	      1.37484751	     -1.43454803	     -1.26680893	      0.93112060	      0.18199328	     21.31676807	      3.97987727	     -0.22300152	    -22.48034197	      3.26106755	     -6.11087569	      0.00000000	    -14.82364549	      5.00953526	     -2.49944321	    -29.26551838	     10.65281210	      3.96845281	      0.00000000	    -29.39753574	     -1.13118546	     -9.00839693
      5.34000000	      3.54184104	      0.82191956	     -1.19691782	     -1.25306184	      0.93277690	      0.18260353	     20.48042677	      4.54374647	     -0.47708401	    -22.90162759	      4.49238902	     -6.17009356	      0.00000000	    -13.22818935	      3.78508351	     -3.51521873	    -33.43733766	      7.41182847	      5.46690447	      0.00000000	    -29.40329181	     -0.49519437	     -8.89824339
      5.35000000	      3.36029319	      0.33959042	     -0.72023361	     -1.23972765	      0.93417752	      0.18285194	     19.83065296	      4.92506461	     -1.16044602	    -23.06439417	      5.71855399	     -6.00374809	      0.00000000	    -11.10421852	      2.56544755	     -3.96900540	    -37.73900416	      3.83759093	      6.73018413	      0.00000000	    -29.13206943	      0.16235256	     -9.03241756
      5.36000000	      3.08672759	     -0.19235706	     -0.23007343	     -1.22663440	      0.93541774	      0.18307829	     19.18194075	      5.35088561	     -1.92287122	    -22.99888480	      6.86304628	     -5.71198541	      0.00000000	     -8.75170322	      1.31938333	     -4.18453094	    -41.97132127	      0.16667467	      7.50093931	      0.00000000	    -28.75659760	      0.84981280	     -9.07946529
      5.37000000	      2.62568834	     -0.71506711	      0.23529136	     -1.21390978	      0.93629360	      0.18321319	     18.70028288	      5.77112852	     -2.63814211	    -22.80466918	      7.91973256	     -5.32751498	      0.00000000	     -6.08014963	      0.15877865	     -4.18710234	    -46.09849315	     -3.24157182	      7.78583559	      0.00000000	    -28.19655999	      1.52436200	     -9.08642548
      5.38000000	      2.22104491	     -1.27845814	      0.68852422	     -1.20131712	      0.93716752	      0.18335173	     18.09904088	      6.24796175	     -3.40161174	    -22.44127725	      8.81331867	     -5.06006910	      0.00000000	     -3.43192004	     -0.96840805	     -4.04935440	    -49.99693208	     -6.15052914	      7.49990271	      0.00000000	    -27.69119931	      2.20091107	     -8.98103320
      5.39000000	      1.61920516	     -1.83574669	      0.94006813	     -1.18903805	      0.93758030	      0.18365176	     17.75081699	      6.77091946	     -3.93573536	    -22.11407485	      9.67493033	     -4.63726516	      0.00000000	     -0.53974471	     -1.99984436	     -4.00632801	    -53.71778282	     -8.22684440	      6.65906727	      0.00000000	    -26.99218578	      2.78973665	     -8.68535598
      5.40000000	      1.16679076	     -2.38128735	      1.12311505	     -1.17687845	      0.93818067	      0.18401046	     17.19050011	      7.32684952	     -4.28957206	    -21.66336710	     10.39113188	     -4.34681983	      0.00000000	      2.16010171	     -2.95862573	     -3.98277214	    -57.12291847	     -9.54683764	      5.13840269	      0.00000000	    -26.48994083	      3.32186598	     -8.28828385
      5.41000000	      0.78523023	     -2.87296159	      1.15853948	     -1.16482871	      0.93888360	      0.18455966	     16.52516380	      7.88592574	     -4.41700411	    -21.15063500	     11.00968908	     -4.09982344	      0.00000000	      4.71966301	     -3.83631846	     -4.10260291	    -60.17818242	    -10.12588061	      3.08909846	      0.00000000	    -26.09667516	      3.72122805	     -7.75066992
